<?xml version="1.0" encoding="UTF-8" standalone="no"?><svg xmlns="http://www.w3.org/2000/svg" version="1.1" width="340" height="133" viewBox="0 0 680 266">
<g id="color_0" fill="#5a2000" stroke="#5a2000" stroke-width="2.0" stroke-linejoin="round" vector-effect="non-scaling-stroke">
<path d="M155.00,203.00 L153.00,214.00 L162.00,216.00 L162.00,205.00 L155.00,203.00 Z M535.00,201.00 L533.00,214.00 L540.00,214.00 L542.00,207.00 L535.00,201.00 Z M373.00,201.00 L371.00,214.00 L378.00,216.00 L380.00,205.00 L378.00,201.00 L373.00,201.00 Z M277.00,193.00 L277.00,196.00 L282.00,198.00 L282.00,193.00 L277.00,193.00 Z M283.00,181.00 L283.00,184.00 L288.00,184.00 L288.00,181.00 L283.00,181.00 Z M72.00,165.00 L65.00,167.00 L65.00,200.00 L72.00,200.00 L80.00,190.00 L80.00,171.00 L72.00,165.00 Z M72.00,170.00 L75.00,173.00 L75.00,190.00 L69.00,195.00 L68.00,171.00 L72.00,170.00 Z M23.00,149.00 L23.00,258.00 L64.00,256.00 L67.00,234.00 L77.00,243.00 L85.00,258.00 L108.00,258.00 L113.00,254.00 L148.00,256.00 L153.00,240.00 L168.00,240.00 L173.00,247.00 L173.00,256.00 L202.00,254.00 L202.00,245.00 L192.00,216.00 L190.00,181.00 L178.00,145.00 L135.00,149.00 L129.00,182.00 L121.00,205.00 L114.00,251.00 L92.00,216.00 L92.00,213.00 L108.00,200.00 L110.00,194.00 L110.00,177.00 L104.00,159.00 L92.00,147.00 L84.00,145.00 L27.00,145.00 L23.00,149.00 Z M174.00,148.00 L179.00,155.00 L185.00,179.00 L189.00,222.00 L197.00,250.00 L181.00,253.00 L172.00,237.00 L151.00,235.00 L147.00,237.00 L144.00,253.00 L123.00,253.00 L118.00,247.00 L122.00,238.00 L124.00,209.00 L130.00,194.00 L138.00,153.00 L145.00,150.00 L174.00,148.00 Z M31.00,148.00 L86.00,150.00 L101.00,163.00 L107.00,190.00 L101.00,202.00 L89.00,209.00 L87.00,216.00 L95.00,232.00 L105.00,243.00 L108.00,253.00 L89.00,255.00 L68.00,225.00 L61.00,227.00 L60.00,253.00 L29.00,255.00 L26.00,252.00 L26.00,153.00 L31.00,148.00 Z M670.00,143.00 L639.00,143.00 L618.00,177.00 L614.00,176.00 L600.00,145.00 L569.00,147.00 L569.00,158.00 L575.00,163.00 L585.00,188.00 L597.00,207.00 L595.00,254.00 L636.00,254.00 L640.00,250.00 L640.00,199.00 L666.00,164.00 L666.00,159.00 L672.00,152.00 L670.00,143.00 Z M666.00,148.00 L661.00,164.00 L637.00,195.00 L635.00,248.00 L630.00,251.00 L601.00,251.00 L602.00,207.00 L572.00,151.00 L598.00,150.00 L611.00,180.00 L618.00,184.00 L643.00,146.00 L666.00,148.00 Z M556.00,143.00 L521.00,145.00 L513.00,149.00 L495.00,229.00 L495.00,254.00 L528.00,256.00 L531.00,240.00 L548.00,240.00 L549.00,252.00 L553.00,256.00 L582.00,252.00 L568.00,198.00 L568.00,175.00 L560.00,147.00 L556.00,143.00 Z M554.00,148.00 L565.00,181.00 L565.00,206.00 L577.00,248.00 L574.00,251.00 L555.00,251.00 L554.00,239.00 L550.00,235.00 L527.00,235.00 L524.00,251.00 L499.00,251.00 L500.00,227.00 L518.00,151.00 L549.00,146.00 L554.00,148.00 Z M353.00,149.00 L341.00,193.00 L341.00,206.00 L333.00,237.00 L333.00,254.00 L366.00,256.00 L371.00,240.00 L386.00,240.00 L391.00,256.00 L418.00,254.00 L419.00,240.00 L427.00,252.00 L439.00,256.00 L468.00,256.00 L484.00,246.00 L488.00,234.00 L488.00,145.00 L443.00,143.00 L425.00,147.00 L427.00,168.00 L450.00,168.00 L453.00,171.00 L453.00,226.00 L446.00,221.00 L421.00,221.00 L418.00,241.00 L408.00,204.00 L406.00,175.00 L402.00,168.00 L400.00,149.00 L394.00,143.00 L363.00,145.00 L353.00,149.00 Z M431.00,150.00 L485.00,149.00 L485.00,224.00 L481.00,242.00 L468.00,251.00 L437.00,251.00 L431.00,249.00 L424.00,240.00 L422.00,229.00 L425.00,226.00 L444.00,226.00 L447.00,232.00 L456.00,230.00 L456.00,167.00 L433.00,165.00 L428.00,160.00 L431.00,150.00 Z M392.00,148.00 L397.00,155.00 L399.00,174.00 L403.00,181.00 L405.00,212.00 L411.00,229.00 L413.00,248.00 L410.00,251.00 L395.00,251.00 L390.00,237.00 L367.00,235.00 L365.00,250.00 L362.00,253.00 L337.00,251.00 L336.00,243.00 L342.00,224.00 L346.00,191.00 L356.00,153.00 L359.00,150.00 L392.00,148.00 Z M209.00,147.00 L205.00,185.00 L205.00,228.00 L209.00,256.00 L246.00,256.00 L248.00,223.00 L250.00,222.00 L253.00,228.00 L266.00,238.00 L270.00,236.00 L279.00,212.00 L283.00,219.00 L283.00,246.00 L289.00,256.00 L328.00,254.00 L328.00,193.00 L322.00,145.00 L277.00,145.00 L273.00,149.00 L271.00,166.00 L264.00,181.00 L250.00,145.00 L225.00,143.00 L209.00,147.00 Z M212.00,151.00 L215.00,148.00 L246.00,148.00 L259.00,186.00 L266.00,186.00 L274.00,170.00 L276.00,155.00 L281.00,148.00 L316.00,148.00 L319.00,151.00 L319.00,174.00 L323.00,183.00 L323.00,250.00 L291.00,251.00 L288.00,248.00 L286.00,205.00 L279.00,203.00 L266.00,231.00 L260.00,230.00 L252.00,215.00 L245.00,215.00 L245.00,244.00 L240.00,253.00 L213.00,253.00 L210.00,238.00 L212.00,151.00 Z M477.00,73.00 L477.00,84.00 L486.00,86.00 L488.00,75.00 L477.00,73.00 Z M141.00,39.00 L137.00,70.00 L146.00,72.00 L152.00,64.00 L152.00,45.00 L148.00,39.00 L141.00,39.00 Z M146.00,44.00 L149.00,60.00 L143.00,67.00 L142.00,45.00 L146.00,44.00 Z M473.00,37.00 L469.00,41.00 L469.00,46.00 L473.00,50.00 L480.00,50.00 L482.00,39.00 L473.00,37.00 Z M455.00,29.00 L451.00,39.00 L451.00,50.00 L457.00,59.00 L451.00,75.00 L453.00,94.00 L463.00,102.00 L479.00,106.00 L490.00,106.00 L501.00,100.00 L520.00,104.00 L528.00,94.00 L528.00,85.00 L520.00,78.00 L524.00,72.00 L524.00,65.00 L518.00,59.00 L507.00,59.00 L503.00,63.00 L498.00,58.00 L502.00,52.00 L500.00,27.00 L488.00,21.00 L471.00,21.00 L455.00,29.00 Z M465.00,28.00 L490.00,26.00 L497.00,31.00 L499.00,46.00 L495.00,51.00 L495.00,62.00 L501.00,68.00 L506.00,68.00 L509.00,64.00 L516.00,64.00 L519.00,67.00 L515.00,80.00 L523.00,87.00 L523.00,92.00 L518.00,99.00 L501.00,95.00 L492.00,101.00 L475.00,101.00 L463.00,97.00 L456.00,90.00 L456.00,73.00 L462.00,66.00 L462.00,59.00 L456.00,50.00 L456.00,37.00 L465.00,28.00 Z M195.00,17.00 L191.00,88.00 L199.00,118.00 L207.00,124.00 L221.00,128.00 L248.00,128.00 L256.00,124.00 L266.00,112.00 L274.00,78.00 L276.00,23.00 L272.00,19.00 L237.00,19.00 L233.00,43.00 L233.00,72.00 L227.00,77.00 L224.00,74.00 L226.00,17.00 L195.00,17.00 Z M199.00,20.00 L220.00,20.00 L223.00,23.00 L223.00,80.00 L234.00,80.00 L238.00,72.00 L240.00,25.00 L243.00,22.00 L262.00,22.00 L271.00,25.00 L269.00,80.00 L263.00,108.00 L252.00,121.00 L242.00,125.00 L211.00,121.00 L202.00,114.00 L196.00,94.00 L196.00,23.00 L199.00,20.00 Z M101.00,17.00 L97.00,21.00 L95.00,77.00 L97.00,130.00 L134.00,130.00 L138.00,126.00 L139.00,106.00 L147.00,111.00 L159.00,130.00 L184.00,130.00 L186.00,119.00 L166.00,88.00 L178.00,78.00 L184.00,68.00 L184.00,49.00 L178.00,31.00 L168.00,21.00 L154.00,17.00 L101.00,17.00 Z M103.00,22.00 L160.00,22.00 L173.00,33.00 L179.00,47.00 L181.00,62.00 L175.00,74.00 L161.00,85.00 L161.00,90.00 L181.00,121.00 L178.00,127.00 L163.00,127.00 L142.00,97.00 L135.00,99.00 L135.00,120.00 L130.00,127.00 L103.00,127.00 L100.00,124.00 L100.00,25.00 L103.00,22.00 Z M285.00,19.00 L285.00,128.00 L322.00,128.00 L326.00,99.00 L328.00,98.00 L335.00,108.00 L344.00,110.00 L355.00,88.00 L357.00,110.00 L363.00,128.00 L404.00,126.00 L404.00,57.00 L398.00,17.00 L353.00,17.00 L347.00,27.00 L347.00,36.00 L340.00,53.00 L332.00,38.00 L332.00,29.00 L326.00,17.00 L311.00,15.00 L285.00,19.00 Z M290.00,23.00 L293.00,20.00 L322.00,20.00 L327.00,27.00 L331.00,48.00 L337.00,60.00 L342.00,60.00 L355.00,22.00 L394.00,20.00 L399.00,51.00 L399.00,122.00 L396.00,125.00 L369.00,125.00 L364.00,120.00 L362.00,81.00 L360.00,77.00 L355.00,77.00 L342.00,105.00 L332.00,98.00 L328.00,87.00 L321.00,89.00 L321.00,122.00 L318.00,125.00 L291.00,125.00 L288.00,122.00 L286.00,104.00 L286.00,53.00 L290.00,23.00 Z M457.00,7.00 L443.00,15.00 L427.00,31.00 L419.00,49.00 L417.00,72.00 L425.00,98.00 L441.00,116.00 L467.00,128.00 L500.00,128.00 L524.00,118.00 L538.00,106.00 L552.00,76.00 L552.00,55.00 L542.00,31.00 L530.00,17.00 L508.00,5.00 L471.00,3.00 L457.00,7.00 Z M479.00,6.00 L502.00,8.00 L520.00,16.00 L535.00,29.00 L547.00,53.00 L547.00,78.00 L537.00,100.00 L520.00,115.00 L494.00,125.00 L465.00,123.00 L443.00,111.00 L430.00,96.00 L422.00,76.00 L422.00,57.00 L432.00,33.00 L442.00,26.00 L447.00,18.00 L479.00,6.00 Z"/>
</g>
<g id="color_1" fill="#FFFFFF" stroke="#FFFFFF" stroke-width="2.0" stroke-linejoin="round" vector-effect="non-scaling-stroke">
<path d="M429.00,149.00 L427.00,162.00 L431.00,166.00 L452.00,166.00 L455.00,169.00 L455.00,228.00 L449.00,231.00 L446.00,225.00 L423.00,225.00 L423.00,242.00 L429.00,250.00 L435.00,252.00 L470.00,252.00 L482.00,244.00 L486.00,226.00 L486.00,147.00 L429.00,149.00 Z M394.00,147.00 L355.00,151.00 L345.00,189.00 L335.00,252.00 L364.00,254.00 L366.00,239.00 L369.00,236.00 L388.00,238.00 L393.00,252.00 L414.00,250.00 L414.00,237.00 L404.00,196.00 L404.00,179.00 L400.00,172.00 L398.00,153.00 L394.00,147.00 Z M375.00,202.00 L379.00,207.00 L376.00,215.00 L372.00,212.00 L372.00,205.00 L375.00,202.00 Z M211.00,149.00 L211.00,254.00 L242.00,254.00 L246.00,246.00 L246.00,217.00 L250.00,216.00 L259.00,232.00 L266.00,234.00 L281.00,204.00 L285.00,207.00 L287.00,250.00 L326.00,250.00 L324.00,181.00 L320.00,172.00 L318.00,147.00 L279.00,147.00 L275.00,153.00 L273.00,168.00 L264.00,185.00 L260.00,184.00 L248.00,147.00 L211.00,149.00 Z M176.00,147.00 L137.00,151.00 L121.00,219.00 L121.00,236.00 L117.00,250.00 L121.00,254.00 L146.00,254.00 L148.00,239.00 L153.00,236.00 L170.00,238.00 L179.00,254.00 L198.00,252.00 L198.00,241.00 L188.00,208.00 L186.00,177.00 L176.00,147.00 Z M157.00,204.00 L161.00,207.00 L160.00,215.00 L154.00,212.00 L157.00,204.00 Z M29.00,147.00 L25.00,151.00 L25.00,254.00 L62.00,254.00 L62.00,229.00 L65.00,226.00 L79.00,241.00 L87.00,256.00 L110.00,254.00 L106.00,241.00 L90.00,218.00 L90.00,211.00 L102.00,204.00 L108.00,192.00 L108.00,181.00 L102.00,161.00 L88.00,149.00 L29.00,147.00 Z M74.00,168.00 L79.00,173.00 L79.00,188.00 L70.00,199.00 L64.00,196.00 L66.00,169.00 L74.00,168.00 Z M668.00,147.00 L641.00,145.00 L618.00,181.00 L612.00,178.00 L600.00,149.00 L571.00,149.00 L571.00,156.00 L577.00,161.00 L587.00,186.00 L601.00,209.00 L599.00,252.00 L636.00,250.00 L638.00,197.00 L662.00,166.00 L668.00,147.00 Z M556.00,147.00 L547.00,145.00 L517.00,149.00 L499.00,225.00 L497.00,252.00 L526.00,252.00 L526.00,241.00 L529.00,236.00 L548.00,236.00 L553.00,241.00 L553.00,252.00 L578.00,250.00 L566.00,204.00 L566.00,179.00 L556.00,147.00 Z M535.00,204.00 L541.00,209.00 L538.00,213.00 L534.00,212.00 L535.00,204.00 Z M479.00,77.00 L479.00,82.00 L484.00,82.00 L484.00,77.00 L479.00,77.00 Z M473.00,41.00 L473.00,46.00 L480.00,46.00 L478.00,41.00 L473.00,41.00 Z M289.00,21.00 L285.00,51.00 L285.00,106.00 L289.00,126.00 L320.00,126.00 L322.00,91.00 L326.00,88.00 L331.00,100.00 L337.00,106.00 L344.00,106.00 L357.00,78.00 L361.00,83.00 L363.00,122.00 L367.00,126.00 L400.00,124.00 L400.00,49.00 L396.00,19.00 L353.00,21.00 L345.00,52.00 L340.00,59.00 L332.00,46.00 L328.00,25.00 L324.00,19.00 L289.00,21.00 Z M197.00,19.00 L195.00,96.00 L201.00,116.00 L209.00,122.00 L229.00,126.00 L244.00,126.00 L254.00,122.00 L264.00,110.00 L270.00,82.00 L272.00,23.00 L239.00,23.00 L237.00,70.00 L232.00,79.00 L225.00,79.00 L222.00,76.00 L224.00,21.00 L197.00,19.00 Z M101.00,21.00 L99.00,126.00 L132.00,128.00 L136.00,122.00 L136.00,101.00 L139.00,98.00 L147.00,105.00 L161.00,128.00 L184.00,126.00 L178.00,111.00 L162.00,88.00 L176.00,76.00 L182.00,64.00 L182.00,53.00 L174.00,31.00 L162.00,21.00 L101.00,21.00 Z M146.00,40.00 L151.00,47.00 L151.00,62.00 L144.00,71.00 L138.00,68.00 L140.00,43.00 L146.00,40.00 Z M477.00,5.00 L445.00,17.00 L441.00,24.00 L431.00,31.00 L421.00,55.00 L421.00,78.00 L433.00,104.00 L447.00,116.00 L471.00,126.00 L496.00,126.00 L522.00,116.00 L538.00,102.00 L548.00,80.00 L548.00,51.00 L536.00,27.00 L522.00,15.00 L504.00,7.00 L477.00,5.00 Z M457.00,30.00 L473.00,22.00 L494.00,24.00 L499.00,29.00 L501.00,50.00 L497.00,60.00 L501.00,64.00 L516.00,60.00 L523.00,67.00 L519.00,73.00 L519.00,80.00 L527.00,87.00 L527.00,92.00 L518.00,103.00 L513.00,103.00 L510.00,99.00 L499.00,99.00 L494.00,103.00 L481.00,105.00 L465.00,101.00 L454.00,92.00 L452.00,77.00 L458.00,66.00 L458.00,57.00 L452.00,48.00 L452.00,41.00 L457.00,30.00 Z"/>
</g>
</svg>